#N canvas 324 58 904 480 12;
#X obj 52 27 cnv 19 550 400 empty empty empty 20 12 0 12 #c6ffc7 #404040 0;
#X obj 94 153 tgl 19 0 empty empty empty 0 -10 0 12 #fcfcfc #000000 #000000 0 1;
#X obj 141 364 dac~;
#X obj 141 293 mtof;
#X obj 271 159 tgl 19 0 empty empty empty 0 -10 0 12 #fcfcfc #000000 #000000 0 1;
#X obj 318 318 osc~;
#X obj 318 380 dac~;
#X obj 318 294 mtof;
#X obj 440 162 tgl 19 0 empty empty empty 0 -10 0 12 #fcfcfc #000000 #000000 0 1;
#X obj 487 322 osc~;
#X obj 487 374 dac~;
#X obj 487 298 mtof;
#X obj 141 239 arp 0;
#X obj 318 245 arp 1;
#X obj 487 248 arp 2;
#X text 279 46 MAJOR SCALE;
#X text 132 100 UP;
#X text 308 96 DOWN;
#X text 454 97 RANDOM;
#X obj 141 267 tgl 19 0 empty empty empty 0 -10 0 12 #fcfcfc #000000 #000000 0 1;
#X obj 141 317 osc~;
#X obj 317 270 tgl 19 0 empty empty empty 0 -10 0 12 #fcfcfc #000000 #000000 0 1;
#X obj 487 272 tgl 19 0 empty empty empty 0 -10 0 12 #fcfcfc #000000 #000000 0 1;
#X obj 189 153 notein;
#X floatatom 189 177 5 0 0 0 - - - 0;
#X obj 366 164 notein;
#X floatatom 366 188 5 0 0 0 - - - 0;
#X obj 535 166 notein;
#X floatatom 535 190 5 0 0 0 - - - 0;
#X obj 630 28 cnv 19 200 400 empty empty empty 20 12 0 12 #e0e0e0 #404040 0;
#X obj 669 172 tgl 19 0 empty empty empty 0 -10 0 12 #fcfcfc #000000 #000000 0 1;
#X obj 715 337 osc~;
#X obj 715 389 dac~;
#X obj 715 313 mtof;
#X obj 669 202 metro 150;
#X obj 716 258 arp 3;
#X text 692 51 MINOR SCALE;
#X text 709 110 UP;
#X obj 715 285 tgl 19 0 empty empty empty 0 -10 0 12 #fcfcfc #000000 #000000 0 1;
#X obj 764 176 notein;
#X floatatom 764 200 5 0 0 0 - - - 0;
#X obj 94 183 metro 150;
#X obj 271 189 metro 150;
#X obj 440 192 metro 150;
#X connect 1 0 41 0;
#X connect 3 0 20 0;
#X connect 4 0 42 0;
#X connect 5 0 6 1;
#X connect 5 0 6 0;
#X connect 7 0 5 0;
#X connect 8 0 43 0;
#X connect 9 0 10 0;
#X connect 9 0 10 1;
#X connect 11 0 9 0;
#X connect 12 0 19 0;
#X connect 13 0 21 0;
#X connect 14 0 22 0;
#X connect 19 0 3 0;
#X connect 20 0 2 0;
#X connect 20 0 2 1;
#X connect 21 0 7 0;
#X connect 22 0 11 0;
#X connect 23 0 24 0;
#X connect 24 0 12 0;
#X connect 24 0 12 1;
#X connect 25 0 26 0;
#X connect 26 0 13 0;
#X connect 26 0 13 1;
#X connect 27 0 28 0;
#X connect 28 0 14 0;
#X connect 28 0 14 1;
#X connect 30 0 34 0;
#X connect 31 0 32 0;
#X connect 31 0 32 1;
#X connect 33 0 31 0;
#X connect 34 0 35 0;
#X connect 35 0 38 0;
#X connect 38 0 33 0;
#X connect 39 0 40 0;
#X connect 40 0 35 0;
#X connect 40 0 35 1;
#X connect 41 0 12 0;
#X connect 42 0 13 0;
#X connect 43 0 14 0;
